HIERARCHY
ROOT hip
{
	OFFSET 0.000000 0.000000 0.000000
	CHANNELS 6 Xposition Yposition Zposition Zrotation Yrotation Xrotation 
	JOINT lhipjoint
	{
		OFFSET 0.000000 0.000000 0.000000
		CHANNELS 3 Zrotation Yrotation Xrotation
		JOINT lfemur
		{
			OFFSET 1.363060 -1.794630 0.839290
			CHANNELS 3 Zrotation Yrotation Xrotation
			JOINT ltibia
			{
				OFFSET 2.448110 -6.726130 0.000000
				CHANNELS 3 Zrotation Yrotation Xrotation
				JOINT lfoot
				{
					OFFSET 2.562200 -7.039590 0.000000
					CHANNELS 3 Zrotation Yrotation Xrotation
					JOINT ltoes
					{
						OFFSET 0.157640 -0.433110 2.322550
						CHANNELS 3 Zrotation Yrotation Xrotation
						End Site
						{
							OFFSET 0.000000 0.000000 0.000000
						}
					}
				}
			}
		}
	}
	JOINT rhipjoint
	{
		OFFSET 0.000000 0.000000 0.000000
		CHANNELS 3 Zrotation Yrotation Xrotation
		JOINT rfemur
		{
			OFFSET -1.305520 -1.794630 0.839290
			CHANNELS 3 Zrotation Yrotation Xrotation
			JOINT rtibia
			{
				OFFSET -2.542530 -6.985550 0.000000
				CHANNELS 3 Zrotation Yrotation Xrotation
				JOINT rfoot
				{
					OFFSET -2.568260 -7.056230 0.000000
					CHANNELS 3 Zrotation Yrotation Xrotation
					JOINT rtoes
					{
						OFFSET -0.164730 -0.452590 2.363150
						CHANNELS 3 Zrotation Yrotation Xrotation
						End Site
						{
							OFFSET 0.000000 0.000000 0.000000
						}
					}
				}
			}
		}
	}
	JOINT lowerback
	{
		OFFSET 0.000000 0.000000 0.000000
		CHANNELS 3 Zrotation Yrotation Xrotation
		JOINT upperback
		{
			OFFSET 0.028270 2.035590 -0.193380
			CHANNELS 3 Zrotation Yrotation Xrotation
			JOINT thorax
			{
				OFFSET 0.056720 2.048850 -0.042750
				CHANNELS 3 Zrotation Yrotation Xrotation
				JOINT lowerneck
				{
					OFFSET 0.000000 0.000000 0.000000
					CHANNELS 3 Zrotation Yrotation Xrotation
					JOINT upperneck
					{
						OFFSET -0.054170 1.746240 0.172020
						CHANNELS 3 Zrotation Yrotation Xrotation
						JOINT head
						{
							OFFSET 0.104070 1.761360 -0.123970
							CHANNELS 3 Zrotation Yrotation Xrotation
							End Site
							{
								OFFSET 0.000000 0.000000 0.000000
							}
						}
					}
				}
				JOINT lclavicle
				{
					OFFSET 0.000000 0.000000 0.000000
					CHANNELS 3 Zrotation Yrotation Xrotation
					JOINT lhumerus
					{
						OFFSET 3.362410 1.200890 -0.311210
						CHANNELS 3 Zrotation Yrotation Xrotation
						JOINT lradius
						{
							OFFSET 4.983000 -0.000000 -0.000000
							CHANNELS 3 Zrotation Yrotation Xrotation
							JOINT lwrist
							{
								OFFSET 3.483560 -0.000000 -0.000000
								CHANNELS 3 Zrotation Yrotation Xrotation
								JOINT lhand
								{
									OFFSET 0.000000 0.000000 0.000000
									CHANNELS 3 Zrotation Yrotation Xrotation
									JOINT lfingers
									{
										OFFSET 0.715260 -0.000000 -0.000000
										CHANNELS 3 Zrotation Yrotation Xrotation
										End Site
										{
											OFFSET 0.000000 0.000000 0.000000
										}
									}
								}
								JOINT lthumb
								{
									OFFSET 0.000000 0.000000 0.000000
									CHANNELS 3 Zrotation Yrotation Xrotation
									End Site
									{
										OFFSET 0.000000 0.000000 0.000000
									}
								}
							}
						}
					}
				}
				JOINT rclavicle
				{
					OFFSET 0.000000 0.000000 0.000000
					CHANNELS 3 Zrotation Yrotation Xrotation
					JOINT rhumerus
					{
						OFFSET -3.136600 1.374050 -0.404650
						CHANNELS 3 Zrotation Yrotation Xrotation
						JOINT rradius
						{
							OFFSET -5.241900 -0.000000 -0.000000
							CHANNELS 3 Zrotation Yrotation Xrotation
							JOINT rwrist
							{
								OFFSET -3.444170 -0.000000 -0.000000
								CHANNELS 3 Zrotation Yrotation Xrotation
								JOINT rhand
								{
									OFFSET 0.000000 0.000000 0.000000
									CHANNELS 3 Zrotation Yrotation Xrotation
									JOINT rfingers
									{
										OFFSET -0.622530 -0.000000 -0.000000
										CHANNELS 3 Zrotation Yrotation Xrotation
										End Site
										{
											OFFSET 0.000000 0.000000 0.000000
										}
									}
								}
								JOINT rthumb
								{
									OFFSET 0.000000 0.000000 0.000000
									CHANNELS 3 Zrotation Yrotation Xrotation
									End Site
									{
										OFFSET 0.000000 0.000000 0.000000
									}
								}
							}
						}
					}
				}
			}
		}
	}
}
MOTION
Frames: 10
Frame Time: 0.008333
2.631985 16.736513 2.917560 177.691730 -4.806864 -170.857797 -4.353443 -2.271114 -1.628679 -17.443451 -2.318341 -18.321343 6.065422 14.422841 42.610390 1.192247 -0.220250 -21.785919 0.687500 -5.300900 -14.768900 3.649294 1.303624 -0.613180 14.752052 14.400123 -29.025815 -8.669540 -13.810016 47.811331 0.528255 25.919557 -2.288325 -0.087400 -1.906400 5.247000 -0.357819 -2.425642 12.154658 0.950781 -4.969094 -2.586710 -5.699500 -3.055731 9.533950 -2.660803 11.217837 -7.703937 -4.663298 16.630974 3.721224 -4.123000 8.290600 -0.051500 -5.747545 -3.764840 3.394601 -79.038113 1.642300 39.884970 49.344539 -53.015634 -23.398695 0.330576 2.078560 18.726883 25.939422 -10.773203 -6.371900 -7.125000 0.000000 0.000000 -0.687900 15.486900 0.479300 6.943962 4.196907 4.202306 77.309479 -12.227948 24.172119 -44.290781 55.478996 -17.248863 -0.264760 -2.657023 -2.703882 -10.474617 12.484175 -2.674800 7.125000 0.000000 0.000000 11.788800 -14.781300 8.577500 
2.617115 16.743769 2.934580 177.550117 -5.211697 -170.758218 -4.377192 -2.227545 -1.630221 -17.506466 -3.134973 -18.783903 6.305499 14.584490 43.540363 1.162202 -0.423839 -21.343289 0.584300 -4.894300 -13.607400 3.705520 1.265236 -0.574207 14.401606 13.928312 -29.361942 -8.653246 -13.800043 47.759604 0.580626 25.963119 -1.936083 -0.061800 -1.604100 4.412900 -0.042378 -2.446201 12.417149 0.908107 -4.999077 -2.623463 -5.995272 -3.020326 9.205248 -2.743717 11.114781 -7.582882 -4.577956 16.441210 3.758959 -4.042100 8.206800 -0.099800 -5.751467 -3.815260 3.384753 -79.481004 1.064503 40.333852 49.958329 -53.190780 -23.709964 0.347228 2.061321 19.129656 24.859619 -10.561753 -5.961900 -7.125000 0.000000 0.000000 -1.419500 15.881800 0.977200 6.918693 4.245533 4.179439 77.039575 -12.620855 24.072160 -44.252083 55.448228 -17.269486 -0.274808 -2.652138 -2.833817 -10.561447 12.565971 -2.707400 7.125000 0.000000 0.000000 11.739300 -14.699900 8.560800 
2.601350 16.746457 2.953660 177.406917 -5.690899 -170.693373 -4.407662 -2.181055 -1.634951 -17.549604 -4.065992 -19.296096 6.599166 14.782948 44.676071 1.136678 -0.633779 -20.933111 0.481300 -4.448700 -12.342500 3.760841 1.230859 -0.541184 14.051489 13.453148 -29.661615 -8.644118 -13.806805 47.753364 0.617866 25.956067 -1.695844 -0.044100 -1.354700 3.725400 0.348551 -2.465706 12.705063 0.872644 -5.029315 -2.646250 -6.304290 -2.983953 8.931810 -2.845939 10.981362 -7.543082 -4.510063 16.231992 3.815757 -3.953300 8.113300 -0.124100 -5.768766 -3.852259 3.375626 -79.739706 0.445170 40.942928 50.649926 -53.393529 -24.078664 0.371894 2.031792 19.560678 23.730094 -10.471501 -5.600200 -7.125000 0.000000 0.000000 -2.204800 16.151700 1.505600 6.899847 4.288668 4.157581 76.761480 -12.983514 23.922419 -44.257601 55.432210 -17.318375 -0.280628 -2.642232 -2.968402 -10.572947 12.604245 -2.712100 7.125000 0.000000 0.000000 11.738700 -14.672500 8.567400 
2.585405 16.745740 2.975070 177.275440 -6.251960 -170.650378 -4.443692 -2.134271 -1.641329 -17.545549 -4.936666 -19.950953 6.948587 15.016112 46.020837 1.093524 -0.801944 -20.367263 0.441600 -4.263800 -11.820200 3.817693 1.198366 -0.512271 13.725420 12.968001 -29.965302 -8.646876 -13.829936 47.809011 0.638703 25.920043 -1.609285 -0.027400 -1.068400 2.937000 0.821840 -2.474936 13.002388 0.841872 -5.047906 -2.652448 -6.649177 -2.938301 8.728291 -2.900478 10.806945 -7.567976 -4.486656 15.989589 3.863524 -3.887000 8.001800 -0.130000 -5.795929 -3.869114 3.368531 -79.792420 -0.237724 41.794897 51.398442 -53.616725 -24.488203 0.401921 1.990699 19.979961 22.593807 -10.472163 -5.279500 -7.125000 0.000000 0.000000 -3.008700 16.325400 2.044500 6.887047 4.324935 4.140184 76.493298 -13.264386 23.737586 -44.221687 55.395146 -17.345641 -0.281743 -2.633293 -3.130205 -10.574505 12.608970 -2.709500 7.125000 0.000000 0.000000 11.743300 -14.678300 8.569400 
2.569997 16.741888 2.998718 177.102741 -6.878587 -170.617603 -4.487193 -2.083324 -1.647780 -17.565148 -5.800035 -20.736148 7.358969 15.278009 47.577812 1.025702 -0.842516 -19.611145 0.475400 -4.421900 -12.266600 3.881024 1.167312 -0.483315 13.355274 12.463380 -30.283666 -8.660795 -13.869162 47.929073 0.646551 25.870205 -1.695429 -0.012100 -0.710400 1.952400 1.300431 -2.483975 13.320001 0.815603 -5.066599 -2.651052 -6.979667 -2.894320 8.558718 -3.014219 10.635189 -7.674008 -4.415631 15.750610 3.918759 -3.780700 7.890600 -0.125400 -5.834181 -3.884958 3.362987 -79.680621 -0.910207 42.867316 52.281823 -53.890824 -24.997320 0.434603 1.945495 20.299333 21.543120 -10.555880 -5.017900 -7.125000 0.000000 0.000000 -3.763600 16.395300 2.553800 6.874134 4.352085 4.121257 76.242785 -13.510695 23.490059 -44.176793 55.351444 -17.371933 -0.285338 -2.623012 -3.248843 -10.568577 12.642727 -2.709400 7.125000 0.000000 0.000000 11.752400 -14.657000 8.581800 
2.555127 16.733289 3.024338 176.957186 -7.581868 -170.630754 -4.536099 -2.032374 -1.653280 -17.520106 -6.662216 -21.617034 7.833199 15.566066 49.351192 0.949208 -0.905633 -18.722307 0.516900 -4.607800 -12.793300 3.939844 1.139512 -0.459773 13.036442 12.001197 -30.546081 -8.683519 -13.925331 48.099513 0.627281 25.743210 -1.981227 -0.002300 -0.310000 0.851800 1.861499 -2.494437 13.703823 0.797175 -5.077931 -2.646812 -7.311842 -2.843364 8.366875 -3.134924 10.686569 -7.795654 -4.336438 15.448759 3.976205 -3.668000 7.584900 -0.118300 -5.878983 -3.904107 3.362068 -79.434463 -1.531044 44.160212 53.277741 -54.200547 -25.587011 0.466946 1.898075 20.574597 20.584844 -10.643754 -4.783100 -7.125000 0.000000 0.000000 -4.456000 16.447300 3.021200 6.862468 4.382336 4.105966 75.998793 -13.763392 23.190103 -44.104734 55.292219 -17.389940 -0.290161 -2.616183 -3.348362 -10.622772 12.696015 -2.729800 7.125000 0.000000 0.000000 11.721100 -14.608000 8.570500 
2.541153 16.721375 3.049957 176.813399 -8.354035 -170.707354 -4.589426 -1.982653 -1.653903 -17.450344 -7.461942 -22.582828 8.373345 15.876378 51.338389 0.874420 -1.014060 -17.787334 0.573900 -4.851400 -13.485300 3.992000 1.121090 -0.443871 12.741362 11.552227 -30.715354 -8.710623 -13.998388 48.302921 0.597162 25.580491 -2.348400 -0.000200 0.087800 -0.241300 2.447838 -2.515392 14.180601 0.789186 -5.086664 -2.647602 -7.594513 -2.795315 8.119937 -3.252674 10.532259 -7.914320 -4.285705 15.231555 3.980797 -3.570200 7.478600 -0.114100 -5.919059 -3.934231 3.357391 -79.103164 -2.035604 45.620611 54.456860 -54.568027 -26.310639 0.501768 1.854400 20.778260 19.773594 -10.782070 -4.606200 -7.125000 0.000000 0.000000 -5.050300 16.420900 3.430100 6.865081 4.424501 4.082894 75.716087 -14.107851 22.883253 -44.104905 55.258599 -17.456683 -0.291022 -2.608850 -3.496752 -10.691560 12.707468 -2.747300 7.125000 0.000000 0.000000 11.679600 -14.599800 8.540900 
2.529597 16.707132 3.075218 176.695303 -9.187947 -170.881169 -4.645610 -1.936014 -1.650564 -17.328537 -8.197206 -23.598293 8.983649 16.207061 53.545293 0.807283 -1.162290 -16.873955 0.643200 -5.130700 -14.281700 4.027606 1.119709 -0.445282 12.518146 11.120369 -30.734967 -8.738567 -14.089316 48.523251 0.547883 25.336320 -2.824235 -0.004200 0.417200 -1.146400 3.051619 -2.561293 14.771768 0.800286 -5.115140 -2.642889 -7.790223 -2.766999 7.864483 -3.375966 10.398867 -8.136704 -4.276957 15.067246 4.012601 -3.479600 7.392500 -0.056600 -5.955194 -3.958563 3.348838 -78.720005 -2.522012 47.157550 55.772118 -54.965293 -27.135958 0.542179 1.811759 21.009928 19.043459 -10.971586 -4.466400 -7.125000 0.000000 0.000000 -5.591500 16.327000 3.812500 6.880912 4.475069 4.059212 75.368463 -14.466836 22.577564 -44.131928 55.230490 -17.548886 -0.296362 -2.596735 -3.663752 -10.770835 12.768293 -2.774200 7.125000 0.000000 0.000000 11.633700 -14.547300 8.519100 
2.517684 16.691008 3.099852 176.606270 -10.065784 -171.166479 -4.702345 -1.896070 -1.648238 -17.188848 -8.903391 -24.612464 9.664032 16.549455 55.957406 0.757357 -1.329958 -16.120640 0.739900 -5.495000 -15.325900 4.044680 1.139151 -0.469129 12.369406 10.646322 -30.594935 -8.762481 -14.198249 48.740631 0.493523 25.070798 -3.348783 -0.011400 0.688100 -1.891000 3.699841 -2.608165 15.436310 0.825522 -5.138698 -2.617641 -7.931025 -2.741556 7.675206 -3.512712 10.245963 -8.445127 -4.317292 14.894500 4.038998 -3.401800 7.295900 0.023600 -5.992637 -3.966890 3.341185 -78.317443 -3.040262 48.768120 57.304610 -55.405989 -28.118837 0.586263 1.764850 21.276575 18.271787 -11.174349 -4.315900 -7.125000 0.000000 0.000000 -6.162900 16.224900 4.220200 6.914290 4.517092 4.039532 74.910904 -14.810472 22.296779 -44.253309 55.240096 -17.708859 -0.301632 -2.577224 -3.746376 -10.854774 12.801300 -2.797400 7.125000 0.000000 0.000000 11.582500 -14.528600 8.484700 
2.505591 16.672017 3.123232 176.459492 -10.997094 -171.499518 -4.761537 -1.857559 -1.646005 -17.114651 -9.581575 -25.685458 10.418546 16.889702 58.569596 0.736177 -1.627911 -15.613875 0.821900 -5.784300 -16.160000 4.059956 1.175668 -0.505922 12.166013 10.093833 -30.372900 -8.782699 -14.321956 48.965938 0.440177 24.779630 -3.883590 -0.019500 0.902100 -2.479400 4.312991 -2.663641 16.118036 0.856213 -5.172487 -2.579605 -8.035865 -2.728948 7.553095 -3.630889 10.069675 -8.898343 -4.379935 14.724271 4.156913 -3.323300 7.196100 0.180300 -6.031581 -3.957765 3.329718 -77.886431 -3.580461 50.410764 59.027637 -55.869319 -29.250040 0.627544 1.722090 21.534048 17.598218 -11.326143 -4.173400 -7.125000 0.000000 0.000000 -6.661700 16.161300 4.575600 6.956348 4.559695 4.019435 74.450528 -15.164287 22.067391 -44.558555 55.331444 -17.976233 -0.290878 -2.563724 -3.949927 -10.946303 12.668218 -2.797000 7.125000 0.000000 0.000000 11.522300 -14.668000 8.403800 
